<?xml version="1.0" encoding="UTF-8" standalone="no"?>
<!-- Created with Inkscape (http://www.inkscape.org/) -->
<svg xmlns:dc="http://purl.org/dc/elements/1.1/" xmlns:cc="http://creativecommons.org/ns#" xmlns:rdf="http://www.w3.org/1999/02/22-rdf-syntax-ns#" xmlns:svg="http://www.w3.org/2000/svg" xmlns="http://www.w3.org/2000/svg" xmlns:xlink="http://www.w3.org/1999/xlink" xmlns:sodipodi="http://sodipodi.sourceforge.net/DTD/sodipodi-0.dtd" xmlns:inkscape="http://www.inkscape.org/namespaces/inkscape" version="1.0" viewBox="5 662 273 173" id="svg2" sodipodi:version="0.32" inkscape:version="0.46" sodipodi:docname="Gemeindebezirke_Wiens3.svg" inkscape:output_extension="org.inkscape.output.svg.inkscape">
  <metadata id="metadata2517">
    <rdf:RDF>
      <cc:Work rdf:about="">
        <dc:format>image/svg+xml</dc:format>
        <dc:type rdf:resource="http://purl.org/dc/dcmitype/StillImage"/>
      </cc:Work>
    </rdf:RDF>
  </metadata>
  <sodipodi:namedview inkscape:window-height="827" inkscape:window-width="1136" inkscape:pageshadow="2" inkscape:pageopacity="0.0" guidetolerance="10.0" gridtolerance="10.0" objecttolerance="10.0" borderopacity="1.0" bordercolor="#666666" pagecolor="#ffffff" id="base" showgrid="false" inkscape:zoom="2" inkscape:cx="143.30906" inkscape:cy="99.148395" inkscape:window-x="526" inkscape:window-y="62" inkscape:current-layer="svg2" showguides="true" inkscape:guide-bbox="true"/>
  <defs id="genericDefs">
    <inkscape:perspective sodipodi:type="inkscape:persp3d" inkscape:vp_x="0 : 86.5 : 1" inkscape:vp_y="0 : 1000 : 0" inkscape:vp_z="273 : 86.5 : 1" inkscape:persp3d-origin="136.5 : 57.666667 : 1" id="perspective2519"/>

    <script type="text/ecmascript"><![CDATA[
    function hover(e, bez, bezname)
    {
      var re = e.target;
      var bezout = document.getElementById('textBez');
      var beznameout = document.getElementById('textBezName');
      re.style.setProperty('fill-opacity','.8','');
      bezout.textContent = bez+'.';
      beznameout.textContent = bezname;
    }
    function out(e)
    {
      var re = e.target;
      var bezout = document.getElementById('textBez');
      var beznameout = document.getElementById('textBezName');
      re.style.setProperty('fill-opacity','0','');
      bezout.textContent = '';
      beznameout.textContent = '';
    }
    ]]></script>

  </defs>
  <path d="M 77.825869,777.10122 L 72.856154,777.25747 L 72.245859,776.95226 L 71.330225,776.64705 L 70.414591,776.34183 L 67.667817,775.73141 L 66.752183,775.4262 L 65.226253,775.12099 L 62.479479,774.51057 L 56.98593,773.90014 L 56.375507,773.90014 L 51.492254,772.98451 L 45.998705,769.01676 L 44.167564,767.79592 L 33.146774,763.3213 L 22.171738,761.00389 L 15.80519,766.60683" style="fill:none;stroke:#73c2ff;stroke-width:0.91600000000000004;stroke-linecap:round;stroke-linejoin:round;stroke-miterlimit:4;stroke-dasharray:none;stroke-opacity:1" id="path3344" sodipodi:nodetypes="ccccccccccccccccc"/>
  <path d="M 90.44381,776.67658 L 89.723092,778.11827 L 87.891824,779.64433 L 86.671106,779.64433 L 85.14505,779.64433 L 84.229543,779.33912 L 81.482641,778.11827 L 78.125444,777.20264" style="fill:none;stroke:#73c2ff;stroke-width:0.91600000000000004;stroke-linecap:square;stroke-linejoin:round;stroke-miterlimit:4;stroke-dasharray:none;stroke-opacity:1" id="path3342" sodipodi:nodetypes="cccccccc"/>
  <path d="M 99.377951,770.42817 L 99.289562,770.9419 L 99.422145,771.95007 L 99.116935,772.86571 L 97.896218,774.39177 L 96.675373,774.69698 L 94.539021,775.3074 M 94.539021,775.3074 L 93.503248,775.61261" style="fill:none;stroke:#73c2ff;stroke-width:0.91600000000000004;stroke-linecap:square;stroke-linejoin:round;stroke-miterlimit:4;stroke-dasharray:none;stroke-opacity:1" id="path3340" sodipodi:nodetypes="ccccccccc"/>
  <path style="fill:none;fill-rule:evenodd;stroke:#73c2ff;stroke-width:0.91600000000000004;stroke-linecap:square;stroke-linejoin:round;stroke-opacity:1;stroke-miterlimit:4;stroke-dasharray:none" d="M 115.26446,756.55534 C 115.24663,757.53996 115.21398,758.0076 115.13188,758.98602 C 114.74953,759.69454 114.41818,760.33162 114.15961,761.10734 C 113.6806,761.93904 113.35403,762.77414 112.7012,763.44963" id="path3338" sodipodi:nodetypes="cccc"/>
  <path style="fill:none;fill-rule:evenodd;stroke:#73c2ff;stroke-width:1.19999999999999996;stroke-linecap:round;stroke-linejoin:round;stroke-opacity:1;stroke-miterlimit:4;stroke-dasharray:none" d="M 132.14664,739.23122 C 132.37782,739.11318 133.6597,739.48098 134.44473,739.76156 C 135.35263,740.08606 135.52038,739.31961 136.38927,739.05445 C 136.9793,738.87439 138.20124,739.38582 138.20124,738.30315 C 138.20124,737.84608 139.18315,737.03592 139.23601,736.63449 C 139.30222,736.13167 139.00118,735.30168 139.00118,734.88189" id="path2562" sodipodi:nodetypes="cssssc"/>
  <path style="fill:none;fill-rule:evenodd;stroke:#73c2ff;stroke-width:1.19999999999999996;stroke-linecap:round;stroke-linejoin:round;stroke-opacity:1;stroke-miterlimit:4;stroke-dasharray:none" d="M 137.84769,739.01025 C 137.84769,739.24596 137.77536,739.23459 137.84769,739.01025 C 138.41019,737.26548 138.08143,741.72475 137.67091,742.54579 C 137.41818,743.05124 137.62823,744.67316 137.7593,745.19744 C 137.99137,746.12574 138.55479,746.22615 138.55479,747.31876 C 138.55479,747.72497 139.01892,749.00073 138.94809,749.35484" id="path2564" sodipodi:nodetypes="cssssc"/>
  <path style="fill:none;fill-rule:evenodd;stroke:#73c2ff;stroke-width:0.80000000000000004;stroke-linecap:round;stroke-linejoin:round;stroke-opacity:1;stroke-miterlimit:4;stroke-dasharray:none" d="M 137.58252,743.51806 C 137.58252,744.02152 138.64073,743.69239 138.99673,744.04839 C 139.34838,744.40004 140.37368,744.01112 140.94128,744.57872 C 141.18966,744.8271 141.67909,744.7555 142.00194,744.7555" id="path2566"/>
  <path style="fill:none;fill-rule:evenodd;stroke:#73c2ff;stroke-width:1.89999999999999991;stroke-linecap:round;stroke-linejoin:round;stroke-opacity:1;stroke-miterlimit:4;stroke-dasharray:none" d="M 115.6668,721.64711 C 124.26328,722.07644 130.46742,724.4576 136.26014,730.5112 C 140.83953,735.78823 141.77357,742.62336 142.57162,752.2492" id="path2558" sodipodi:nodetypes="ccc"/>
  <path id="path15" style="fill:none;stroke:#73c2ff;stroke-width:2.44169020999999997;stroke-linecap:round;stroke-linejoin:round;stroke-opacity:1" d="M 223.04356,813.88263 L 227.31652,814.49305 L 231.58948,814.49305 L 233.11553,814.49305"/>
  <path id="path17" style="fill:none;stroke:#73c2ff;stroke-width:2.44169020999999997;stroke-linecap:round;stroke-linejoin:round;stroke-opacity:1" d="M 223.04356,813.88263 L 220.29666,813.27221"/>
  <path id="path19" style="fill:none;stroke:#73c2ff;stroke-width:2.44169020999999997;stroke-linecap:round;stroke-linejoin:round;stroke-opacity:1" d="M 83.256793,665.23202 L 83.562004,665.84244 L 83.867216,666.14765 L 84.172427,666.45286 L 84.477511,667.06328 L 85.087934,667.67371 L 85.393145,668.28413 L 86.003568,668.89455 L 86.308779,669.50497 L 86.919201,670.42061 L 87.224413,671.33624 L 87.529497,672.25187 L 88.139919,673.47272 L 88.750342,674.38835 L 89.055553,675.30399 L 89.055553,676.52483 L 89.360765,677.44047 L 89.360765,678.3561 L 89.360765,679.57695 L 89.360765,680.79779 L 89.360765,682.01864 L 89.665976,682.93427 L 89.665976,683.54469 L 89.971187,685.37469 L 90.581483,686.59553 L 90.581483,686.90075"/>
  <path id="path21" style="fill:none;stroke:#73c2ff;stroke-width:2.44169020999999997;stroke-linecap:round;stroke-linejoin:round;stroke-opacity:1" d="M 90.581864,686.90202 L 90.581864,687.81765 L 90.887075,689.0385 L 91.497498,690.56455 L 91.802709,691.17498 L 92.107793,692.39582 L 93.023427,693.61667"/>
  <path id="path23" style="fill:none;stroke:#73c2ff;stroke-width:2.44169020999999997;stroke-linecap:round;stroke-linejoin:round;stroke-opacity:1" d="M 220.29666,813.27221 L 218.19678,812.03504 L 192.36096,798.83901 L 189.7768,797.40249 L 186.11427,795.57123" sodipodi:nodetypes="ccccc"/>
  <path id="path25" style="fill:none;stroke:#73c2ff;stroke-width:0.91600000000000004;stroke-linecap:round;stroke-linejoin:round;stroke-miterlimit:4;stroke-dasharray:none;stroke-opacity:1" d="M 115.30385,756.50291 L 113.42794,756.18953 L 111.64144,756.1977 L 109.8103,754.67164 L 107.97916,751.92474 L 107.06353,751.31432" sodipodi:nodetypes="cccccc"/>
  <path id="path27" style="fill:none;stroke:#73c2ff;stroke-width:0.91563391999999999;stroke-linecap:round;stroke-linejoin:round;stroke-opacity:1" d="M 140.197,775.32831 L 137.98731,773.97316 L 135.63516,772.49187 L 133.31144,771.15305 L 130.86975,769.62699 L 129.6489,768.10094 L 126.75953,763.90118 L 123.54519,763.21756 L 122.63773,762.47283 L 121.89312,760.77714 L 121.40884,758.64066 L 120.35891,756.40648 L 119.45143,755.40948 L 117.91734,754.9252 L 116.22038,755.40948 L 115.30487,756.50418" sodipodi:nodetypes="cccccccccccccccc"/>
  <path id="path29" style="fill:none;stroke:#73c2ff;stroke-width:0.91563391999999999;stroke-linecap:round;stroke-linejoin:round;stroke-opacity:1" d="M 105.53722,746.11301 L 105.84243,747.33385 L 105.84243,749.16512 L 107.06327,751.3016"/>
  <path id="path31" style="fill:none;stroke:#73c2ff;stroke-width:0.91563391999999999;stroke-linecap:round;stroke-linejoin:round;stroke-opacity:1" d="M 176.65144,790.07615 L 176.08579,790.91041 L 167.26733,786.90607 L 158.55444,782.57201 L 155.58497,781.38777 L 144.96367,777.16774 L 143.0592,776.34164 L 141.03253,775.50048 L 140.1535,775.37435" sodipodi:nodetypes="ccccccccc"/>
  <path id="path33" style="fill:none;stroke:#73c2ff;stroke-width:2.44200000000000017;stroke-linecap:round;stroke-linejoin:round;stroke-miterlimit:4;stroke-dasharray:none;stroke-opacity:1" d="M 121.4082,736.04104 L 122.93413,737.56709 L 127.20721,742.75568 L 139.72088,754.96414 L 142.77299,758.01625 L 144.29777,759.5423 L 147.34989,762.28921 L 152.53848,767.47653 L 155.8958,770.22343 L 160.16876,774.49639 L 176.58091,789.68375 L 176.65017,790.06216" sodipodi:nodetypes="cccccccccccc"/>
  <path id="path35" style="fill:none;stroke:#73c2ff;stroke-width:0.91563391999999999;stroke-linecap:round;stroke-linejoin:round;stroke-opacity:1" d="M 102.09839,737.30665 L 102.23269,739.82971 L 103.09527,742.45047 L 104.62133,744.58695 L 105.53696,746.11301" sodipodi:nodetypes="ccccc"/>
  <path id="path37" style="fill:none;stroke:#73c2ff;stroke-width:2.44169020999999997;stroke-linecap:round;stroke-linejoin:round;stroke-opacity:1" d="M 176.38283,789.4494 L 185.19736,795.26474 L 186.11299,795.56995" sodipodi:nodetypes="ccc"/>
  <path id="path39" style="fill:none;stroke:#73c2ff;stroke-width:0.91563391999999999;stroke-linecap:round;stroke-linejoin:round;stroke-opacity:1" d="M 107.06327,715.59188 L 104.62158,716.81272 L 105.53722,720.47526 L 106.31038,722.31046 L 106.31038,723.94239 L 104.8778,730.21386 L 102.81072,734.31986 L 102.18002,736.04104 L 102.09865,737.30665" sodipodi:nodetypes="ccccccccc"/>
  <path id="path41" style="fill:none;stroke:#73c2ff;stroke-width:2.44169020999999997;stroke-linecap:round;stroke-linejoin:round;stroke-opacity:1" d="M 97.906935,699.41568 L 107.06327,715.59188"/>
  <path id="path43" style="fill:none;stroke:#73c2ff;stroke-width:2.44169020999999997;stroke-linecap:round;stroke-linejoin:round;stroke-opacity:1" d="M 107.06327,715.59188 L 111.33598,722.30653 L 114.08275,725.96906 L 116.82953,730.24202 L 121.40757,736.04104"/>
  <path id="path45" style="fill:none;stroke:#73c2ff;stroke-width:2.44169020999999997;stroke-linecap:round;stroke-linejoin:round;stroke-opacity:1" d="M 93.023427,693.61667 L 93.328639,693.92188 L 97.906681,699.41568" sodipodi:nodetypes="ccc"/>
<a xlink:href="#BC" onclick="window.parent.$('#BezirkCarousel').carousel(0);window.parent.$('#BezirkCarousel').carousel('pause');"  >
  <path d="M 112.86203,756.18498 L 113.16725,756.18498 L 114.38796,756.18498 L 115.3036,756.49019 L 114.99839,759.23709 L 114.08275,761.37357 L 112.25161,764.12047 L 111.33598,765.03611 L 110.42034,765.95174 L 109.50484,766.25695 L 107.06327,765.64653 L 106.14764,765.95174 L 105.53722,766.25695 L 104.62158,765.34132 L 103.70608,764.7309 L 102.79044,764.12047 L 100.95918,762.28921 L 100.04367,761.06836 L 99.738457,760.76315 L 99.128035,758.93188 L 99.433246,757.71104 L 99.433246,756.49019 L 99.433246,755.87977 L 99.738457,754.35371 L 102.79044,754.35371 L 104.01116,753.43808 L 104.31637,753.13287 L 105.23201,752.52244 L 107.06327,750.99639 L 107.67357,751.60681 L 109.81005,754.35371 L 110.72556,755.57456 L 112.25161,756.18498 L 112.86203,756.18498" style="fill:black;fill-opacity:0;stroke:#6e6e6e;stroke-width:0.30521128;stroke-linecap:round;stroke-linejoin:round" id="map1010" onmouseover="hover(evt, '1', 'Innere Stadt')" onmouseout="out(evt)"/>
</a>
<a xlink:href="#BC" onclick="window.parent.$('#BezirkCarousel').carousel(1);window.parent.$('#BezirkCarousel').carousel('pause');" >
  <path d="M 127.51243,742.75568 L 133.31144,748.85991 L 137.58313,753.13287 L 143.38214,758.62667 L 147.6551,762.59442 L 169.3251,782.73709 L 176.95538,790.06216 L 176.34496,790.9778 L 166.88341,786.70484 L 158.33749,782.43188 L 156.81144,781.82146 L 151.92806,779.99019 L 140.94045,775.41329 L 140.33003,775.41329 L 132.39453,770.52991 L 131.17369,769.61428 L 129.34242,767.78301 L 128.42806,766.25695 L 126.59679,763.81526 L 125.07023,763.51005 L 123.5443,763.20484 L 122.62867,762.28921 L 122.01825,760.76315 L 121.40782,758.32146 L 121.10261,757.71104 L 120.49232,756.49019 L 120.18711,755.87977 L 119.27147,755.26935 L 118.05063,754.96414 L 117.74554,754.96414 L 116.21949,755.26935 L 115.60906,755.87977 L 115.30385,756.49019 L 114.38834,756.18498 L 113.1675,756.18498 L 112.86229,756.18498 L 112.25187,756.18498 L 110.72594,755.57456 L 109.8103,754.35371 L 107.67395,751.60681 L 107.06353,750.99639 L 106.45311,750.38597 L 105.84268,749.16512 L 105.84268,748.5547 L 105.84268,746.72343 L 105.53747,745.8078 L 106.45311,745.19865 L 107.06353,745.19865 L 107.97916,743.36738 L 110.72594,741.84132 L 112.86229,743.36738 L 114.08313,744.89343 L 114.69356,744.58822 L 116.5247,743.06217 L 116.21949,740.62048 L 117.74554,739.39963 L 118.05063,739.09442 L 118.66105,738.484 L 119.27147,737.87357 L 121.40782,736.04231 L 125.37544,740.31526 L 127.51243,742.75696" style="fill: black; fill-opacity: 0; stroke: rgb(110, 110, 110); stroke-width: 0.305211; stroke-linecap: round; stroke-linejoin: round;" id="map1020" onmouseover="hover(evt, '2', 'Leopoldstadt')" onmouseout="out(evt)"/>
</a>
<a xlink:href="#BC"  onclick="window.parent.$('#BezirkCarousel').carousel(2);window.parent.$('#BezirkCarousel').carousel('pause');" >
  <path d="M 140.3313,775.42601 L 133.31144,776.95207 L 132.39581,776.64685 L 131.48017,778.17291 L 129.6489,777.8677 L 127.81764,777.25728 L 126.902,776.95207 L 126.29158,776.95207 L 126.29158,778.47812 L 124.76604,781.22502 L 123.23998,785.19277 L 122.93477,785.80319 L 122.01914,785.19277 L 119.57757,782.75108 L 113.77881,775.42601 L 112.86318,772.3739 L 111.64246,770.23742 L 110.72683,768.40615 L 110.42162,767.79573 L 110.42162,767.1853 L 110.42162,765.96446 L 111.33725,765.04882 L 112.25288,764.13319 L 114.08402,761.38756 L 114.99966,759.25108 L 115.30487,756.50418 L 115.61008,755.89376 L 116.22038,755.28334 L 117.74643,754.97812 L 118.05164,754.97812 L 119.27236,755.28334 L 120.188,755.89376 L 120.49321,756.50418 L 121.10363,757.72503 L 121.40884,758.33545 L 122.01914,760.77714 L 122.62956,762.30192 L 123.54519,763.21756 L 125.07125,763.52277 L 126.59679,763.82798 L 128.42806,766.26967 L 129.34369,767.79573 L 131.17496,769.62699 L 132.39581,770.54263 L 140.3313,775.42601" style="fill:black;fill-opacity:0;stroke:#6e6e6e;stroke-width:0.30521128;stroke-linecap:round;stroke-linejoin:round" id="map1030" onmouseover="hover(evt, '3', 'Landstraße')" onmouseout="out(evt)"/>
</a>
<a xlink:href="#BC" onclick="window.parent.$('#BezirkCarousel').carousel(3);window.parent.$('#BezirkCarousel').carousel('pause');" >
  <path d="M 107.06327,765.65925 L 109.50484,766.26967 L 110.42034,765.96446 L 110.42034,767.1853 L 110.42034,767.79573 L 110.72556,768.40615 L 111.64119,770.23742 L 112.86203,772.3739 L 113.77754,775.42601 L 113.16725,776.03643 L 110.42034,777.56249 L 109.81005,777.8677 L 107.36836,778.78333 L 107.06327,778.17291 L 106.45285,777.56249 L 106.14764,776.95207 L 105.53722,776.34164 L 105.23201,775.73122 L 103.70608,773.89995 L 104.31637,773.28953 L 104.62158,772.06868 L 103.40087,770.84784 L 102.79044,770.23742 L 101.87481,768.71136 L 102.48523,768.40615 L 104.01116,767.49052 L 104.31637,767.1853 L 105.53722,766.26967 L 106.14764,765.96446 L 107.06327,765.65925" style="fill:black;fill-opacity:0;stroke:#6e6e6e;stroke-width:0.30521128;stroke-linecap:round;stroke-linejoin:round" id="map1040" onmouseover="hover(evt, '4', 'Wieden')" onmouseout="out(evt)"/>
</a>
<a xlink:href="#BC"  onclick="window.parent.$('#BezirkCarousel').carousel(4);window.parent.$('#BezirkCarousel').carousel('pause');" >
  <path d="M 99.12778,782.44587 L 97.296513,783.05629 L 97.296513,782.44587 L 96.991301,782.14066 L 95.465372,780.00418 L 94.244527,777.8677 L 93.939316,777.56249 L 93.328893,776.95207 L 92.718598,775.73122 L 94.549738,775.42601 L 96.68609,774.81559 L 97.906935,774.51038 L 99.12778,772.98432 L 99.432992,772.06868 L 99.432992,771.45826 L 99.432992,770.23742 L 100.3485,769.32305 L 101.26413,768.71136 L 101.87455,768.71136 L 102.79006,770.23742 L 103.40048,770.84784 L 104.62133,772.06868 L 104.31612,773.28953 L 103.7057,773.89995 L 105.23175,775.73122 L 105.53696,776.34164 L 106.14726,776.95207 L 106.45247,777.56249 L 107.06289,778.17291 L 107.3681,778.78333 L 105.53696,780.00418 L 102.48498,781.83545 L 99.12778,782.44587" style="fill:black;fill-opacity:0;stroke:#6e6e6e;stroke-width:0.30521128;stroke-linecap:round;stroke-linejoin:round" id="map1050" onmouseover="hover(evt, '5', 'Margareten')" onmouseout="out(evt)"/>
</a>
<a xlink:href="#BC"  onclick="window.parent.$('#BezirkCarousel').carousel(5);window.parent.$('#BezirkCarousel').carousel('pause');" >
  <path d="M 94.549484,775.42601 L 92.718216,775.73122 L 90.887075,775.73122 L 90.581864,774.20516 L 90.276653,773.59474 L 91.192287,770.84784 L 91.192287,770.23742 L 91.192287,769.62699 L 92.718216,769.32178 L 93.939061,769.01657 L 94.854695,768.71136 L 95.770202,768.10094 L 96.991047,767.49052 L 98.516976,766.57488 L 100.04303,765.96446 L 100.65346,765.65925 L 102.78981,764.13319 L 103.70544,764.74361 L 104.62095,765.35404 L 105.53658,766.26967 L 104.31586,767.1853 L 104.01065,767.49052 L 102.4846,768.40615 L 101.87417,768.71136 L 101.26375,768.71136 L 100.34824,769.32178 L 99.43261,770.23742 L 99.43261,771.45826 L 99.43261,772.06868 L 99.127399,772.98432 L 97.906681,774.51038 L 96.685836,774.81559 L 94.549484,775.42601" style="fill:black;fill-opacity:0;stroke:#6e6e6e;stroke-width:0.305;stroke-linecap:round;stroke-linejoin:round;stroke-miterlimit:4;stroke-dasharray:none" id="map1060" onmouseover="hover(evt, '6', 'Mariahilf')" onmouseout="out(evt)"/>
</a>
<a xlink:href="#BC" onclick="window.parent.$('#BezirkCarousel').carousel(6);window.parent.$('#BezirkCarousel').carousel('pause');" >
  <path d="M 96.380624,761.06836 L 97.60147,761.06836 L 98.516976,761.06836 L 98.822188,760.76315 L 99.737821,760.76315 L 100.04303,761.06836 L 100.95867,762.28921 L 102.78981,764.12047 L 100.65346,765.64653 L 100.04303,765.95174 L 98.516976,766.56216 L 96.991047,767.4778 L 95.770202,768.08822 L 94.854695,768.69864 L 93.939061,769.00385 L 92.718216,769.30907 L 91.192287,769.61428 L 90.581864,767.78301 L 89.971442,765.34132 L 89.66623,763.20484 L 89.361019,761.67878 L 90.276653,759.5423 L 90.887075,759.84752 L 93.023427,760.45794 L 94.244272,760.45794 L 95.770202,761.06836 L 96.380624,761.06836" style="fill:black;fill-opacity:0;stroke:#6e6e6e;stroke-width:0.30521128;stroke-linecap:round;stroke-linejoin:round" id="map1070" onmouseover="hover(evt, '7', 'Neubau')" onmouseout="out(evt)"/>
</a>
<a xlink:href="#BC" onclick="window.parent.$('#BezirkCarousel').carousel(7);window.parent.$('#BezirkCarousel').carousel('pause');" >
  <path d="M 98.517358,761.06836 L 97.601724,761.06836 L 96.380879,761.06836 L 95.770583,761.06836 L 94.244527,760.45794 L 93.023809,760.45794 L 90.88733,759.84752 L 90.276907,759.5423 L 90.582118,758.93188 L 90.582118,757.71104 L 90.276907,756.7954 L 90.88733,755.87977 L 91.192541,754.35371 L 92.718598,754.0485 L 94.244527,754.0485 L 96.075795,754.0485 L 96.991301,754.35371 L 98.212146,754.35371 L 98.822569,754.35371 L 99.738076,754.35371 L 99.432992,755.87977 L 99.432992,756.49019 L 99.432992,757.71104 L 99.12778,758.93188 L 99.738076,760.76315 L 98.822569,760.76315 L 98.517358,761.06836" style="fill:black;fill-opacity:0;stroke:#6e6e6e;stroke-width:0.30521128;stroke-linecap:round;stroke-linejoin:round" id="map1080" onmouseover="hover(evt, '8', 'Josefstadt')" onmouseout="out(evt)"/>
</a>
<a xlink:href="#BC"  onclick="window.parent.$('#BezirkCarousel').carousel(8);window.parent.$('#BezirkCarousel').carousel('pause');" >
  <path d="M 102.17977,736.95667 L 102.48498,740.92442 L 102.79006,741.53484 L 102.79006,742.14526 L 103.40048,743.06089 L 104.31612,744.28174 L 105.53696,745.8078 L 105.84205,746.72343 L 105.84205,748.5547 L 105.84205,749.16512 L 106.45247,750.38597 L 107.06289,750.99639 L 105.23175,752.52244 L 104.31612,753.1316 L 104.01091,753.43681 L 102.79006,754.35244 L 99.738076,754.35244 L 98.822569,754.35244 L 98.212146,754.35244 L 96.991301,754.35244 L 96.075795,754.04723 L 94.244527,754.04723 L 92.718598,754.04723 L 91.192541,754.35244 L 91.802964,752.52244 L 92.108175,751.60681 L 92.413386,750.38597 L 92.718598,748.85991 L 94.854949,747.94428 L 95.465372,746.72343 L 95.770583,743.67132 L 96.075795,741.53484 L 96.68609,741.22963 L 96.991301,740.6192 L 97.906935,740.31399 L 98.212146,740.6192 L 98.822569,740.00878 L 99.12778,738.17751 L 99.432992,737.26188 L 102.17977,736.95667" style="fill:black;fill-opacity:0;stroke:#6e6e6e;stroke-width:0.30521128;stroke-linecap:round;stroke-linejoin:round" id="map1090" onmouseover="hover(evt, '9', 'Alsergrund')" onmouseout="out(evt)"/>
</a>
<a xlink:href="#BC"  onclick="window.parent.$('#BezirkCarousel').carousel(9);window.parent.$('#BezirkCarousel').carousel('pause');" >
  <path d="M 123.84977,787.02404 L 130.56454,794.0439 L 131.48017,794.95953 L 132.09059,795.56995 L 138.49876,803.50545 L 145.21341,814.18784 L 146.12904,828.53277 L 133.00496,830.66798 L 119.57643,825.78587 L 107.67332,823.34418 L 110.7253,811.74615 L 111.64093,812.05136 L 113.16686,807.77841 L 109.50446,806.55756 L 109.19924,806.55756 L 105.23175,805.33672 L 101.87455,804.72629 L 97.906935,805.0315 L 97.601724,804.72629 L 92.718598,803.20024 L 90.582118,799.23249 L 88.445767,796.18038 L 90.582118,791.29827 L 91.192541,789.77221 L 92.413386,789.77221 L 95.160161,790.38136 L 95.465372,788.85658 L 96.380879,788.85658 L 95.770583,787.02531 L 96.075795,786.7201 L 94.244527,784.88883 L 95.160161,784.27841 L 97.296513,783.05756 L 99.12778,782.44714 L 102.48498,781.83672 L 105.53696,780.00545 L 107.3681,778.7846 L 109.80967,777.86897 L 110.42009,777.56376 L 113.16686,776.0377 L 113.77729,775.42728 L 119.57605,782.75235 L 122.01761,785.19404 L 122.93324,785.80446 L 123.84888,787.02531" style="fill:black;fill-opacity:0;stroke:#6e6e6e;stroke-width:0.30521128;stroke-linecap:round;stroke-linejoin:round" id="map1100" onmouseover="hover(evt, '10', 'Favoriten')" onmouseout="out(evt)"/>
</a>
<a xlink:href="#BC"  onclick="window.parent.$('#BezirkCarousel').carousel(10);window.parent.$('#BezirkCarousel').carousel('pause');" >
  <path d="M 140.94172,775.42601 L 151.92933,780.00418 L 156.81271,781.83545 L 158.33877,782.44587 L 166.88468,786.71883 L 176.34496,790.99178 L 176.95538,790.07615 L 186.11172,795.56868 L 166.88468,798.31558 L 154.98144,812.96573 L 145.21468,814.18657 L 138.50003,803.50418 L 132.09059,795.56868 L 131.48017,794.95826 L 130.56454,794.04263 L 123.8504,787.02277 L 122.93477,785.80319 L 123.23998,785.1915 L 124.76604,781.22502 L 126.29158,778.47812 L 126.29158,776.95207 L 126.902,776.95207 L 127.81764,777.25728 L 129.6489,777.8677 L 131.48017,778.17291 L 132.39581,776.64685 L 133.31144,776.95207 L 140.3313,775.42601 L 140.94172,775.42601" style="fill: black; fill-opacity: 0; stroke: rgb(110, 110, 110); stroke-width: 0.305211; stroke-linecap: round; stroke-linejoin: round;" id="map1110" onmouseover="hover(evt, '11', 'Simmering')" onmouseout="out(evt)"/>
</a>
<a xlink:href="#BC" onclick="window.parent.$('#BezirkCarousel').carousel(11);window.parent.$('#BezirkCarousel').carousel('pause');" >
  <path d="M 94.244272,777.8677 L 95.46499,780.00418 L 96.991047,782.14066 L 97.296258,782.44587 L 97.296258,783.05629 L 95.159779,784.27714 L 94.244272,784.88756 L 96.075413,786.71883 L 95.770202,787.02404 L 96.380624,788.85531 L 95.46499,788.85531 L 95.159779,790.38136 L 92.413005,789.77094 L 91.192287,789.77094 L 90.581864,791.297 L 88.445512,796.18038 L 90.581864,799.23122 L 83.86747,801.3677 L 81.731118,801.67291 L 81.425907,800.75727 L 75.932358,799.5377 L 73.490668,798.92728 L 69.217964,802.89375 L 68.912753,798.01164 L 66.776401,797.70643 L 68.607541,792.51784 L 68.912753,791.60221 L 70.438682,790.99178 L 71.659527,789.16052 L 75.321935,790.68657 L 78.06871,786.71883 L 78.679132,785.80319 L 79.89985,783.05629 L 80.815484,780.00418 L 81.425907,778.17291 L 84.172681,779.39376 L 85.088315,779.69897 L 86.614245,779.69897 L 87.83509,779.69897 L 89.66623,778.17291 L 90.887075,775.73122 L 92.718216,775.73122 L 93.328639,776.95207 L 93.939061,777.56249 L 94.244272,777.8677" style="fill:black;fill-opacity:0;stroke:#6e6e6e;stroke-width:0.30521128;stroke-linecap:round;stroke-linejoin:round" id="map1120" onmouseover="hover(evt, '12', 'Meidling')" onmouseout="out(evt)"/>
</a>
<a xlink:href="#BC"  onclick="window.parent.$('#BezirkCarousel').carousel(12);window.parent.$('#BezirkCarousel').carousel('pause');" >
  <path d="M 78.068074,786.71883 L 75.3213,790.68657 L 71.658891,789.16052 L 70.438046,790.99178 L 68.912117,791.60221 L 68.606905,792.51784 L 66.775765,797.70643 L 64.334075,802.2846 L 61.282089,801.06376 L 60.061371,797.70643 L 57.314596,803.20024 L 54.872906,801.97939 L 53.346977,801.06376 L 48.768934,800.14812 L 45.411737,802.58981 L 39.002682,805.94714 L 31.372399,806.55756 L 29.846343,806.55756 L 17.027723,805.64193 L 7.8713837,792.82305 L 20.690004,767.49052 L 23.742117,763.52277 L 35.645103,765.35404 L 44.191019,767.79573 L 46.02216,769.01657 L 51.515836,772.98432 L 56.398962,773.89995 L 57.009385,773.89995 L 62.502934,774.51038 L 65.249708,775.1208 L 66.775765,775.42601 L 67.691272,775.73122 L 70.438046,776.34037 L 71.35368,776.64558 L 72.269314,776.95207 L 72.879736,777.256 L 78.068074,777.256 L 81.425271,778.17291 L 80.814848,780.00291 L 79.899215,783.05502 L 78.678497,785.80192 L 78.068074,786.71756" style="fill:black;fill-opacity:0;stroke:#6e6e6e;stroke-width:0.30521128;stroke-linecap:round;stroke-linejoin:round" id="map1130" onmouseover="hover(evt, '13', 'Hietzing')" onmouseout="out(evt)"/>
</a>
<a xlink:href="#BC"  onclick="window.parent.$('#BezirkCarousel').carousel(13);window.parent.$('#BezirkCarousel').carousel('pause');" >
  <path d="M 37.475099,729.6316 L 37.780311,737.8723 L 46.021015,736.34625 L 52.124987,738.17751 L 43.579071,750.99639 L 43.273859,751.91202 L 44.799789,750.99639 L 50.903887,754.0485 L 56.397436,755.87977 L 57.923366,755.57456 L 61.890985,756.49019 L 62.501408,757.71104 L 62.501408,761.06709 L 62.196197,761.67751 L 64.027337,762.28921 L 65.248182,761.98272 L 66.774112,761.67751 L 70.131309,763.20357 L 71.352154,763.20357 L 73.183294,763.81399 L 74.40414,763.81399 L 75.930196,764.72962 L 77.150914,765.34005 L 78.982182,766.8661 L 79.897689,767.47653 L 78.066548,767.78174 L 77.761337,768.69737 L 77.761337,769.91822 L 77.456125,770.83385 L 77.150914,771.44427 L 79.592477,772.35991 L 79.287266,772.97033 L 79.592477,773.27554 L 81.423745,774.19117 L 81.423745,775.10681 L 78.066548,777.24329 L 72.878083,777.24329 L 72.267788,776.93808 L 71.352154,776.63287 L 70.43652,776.32765 L 67.689746,775.71723 L 66.774112,775.41202 L 65.248182,775.10681 L 62.501408,774.49639 L 57.007859,773.88596 L 56.397436,773.88596 L 51.514183,772.97033 L 46.020634,769.00258 L 44.189493,767.78174 L 35.643577,765.34005 L 23.740464,763.50878 L 20.688478,767.47653 L 14.889718,750.99512 L 7.8701119,750.99512 L 14.279295,745.50259 L 13.058577,729.6316 L 19.162549,717.72836 L 37.475099,729.6316" style="fill:black;fill-opacity:0;stroke:#6e6e6e;stroke-width:0.30521128;stroke-linecap:round;stroke-linejoin:round" id="map1140" onmouseover="hover(evt, '14', 'Penzing')" onmouseout="out(evt)"/>
</a>
<a xlink:href="#BC"  onclick="window.parent.$('#BezirkCarousel').carousel(14);window.parent.$('#BezirkCarousel').carousel('pause');" >
  <path d="M 86.919201,763.20484 L 88.139919,763.20484 L 89.665976,763.20484 L 89.971187,765.34132 L 90.581483,767.78301 L 91.191905,769.61428 L 91.191905,770.2247 L 91.191905,770.83512 L 90.276399,773.58202 L 90.581483,774.19245 L 90.886694,775.7185 L 89.665976,778.16019 L 87.834708,779.68625 L 86.61399,779.68625 L 85.087934,779.68625 L 84.172427,779.38104 L 81.425525,778.16019 L 78.068328,777.24456 L 81.425525,775.10808 L 81.425525,774.19245 L 79.594385,773.27681 L 79.289174,772.9716 L 79.594385,772.36118 L 77.152822,771.44554 L 77.458033,770.83512 L 77.763244,769.91949 L 77.763244,768.69864 L 78.068328,767.78301 L 79.899596,767.4778 L 78.983962,766.86738 L 77.152822,765.34132 L 75.931976,764.7309 L 76.84761,761.37357 L 77.763244,761.37357 L 78.068328,761.37357 L 79.289174,761.67878 L 80.81523,761.98399 L 82.646371,762.28921 L 83.562004,762.59442 L 84.172427,762.59442 L 84.782722,762.59442 L 85.393145,762.89963 L 85.698356,762.89963 L 86.919201,763.20484" style="fill:black;fill-opacity:0;stroke:#6e6e6e;stroke-width:0.30521128;stroke-linecap:round;stroke-linejoin:round" id="map1150" onmouseover="hover(evt, '15', 'Rudolfsheim-Fünfh.')" onmouseout="out(evt)"/>
</a>
<a xlink:href="#BC"  onclick="window.parent.$('#BezirkCarousel').carousel(15);window.parent.$('#BezirkCarousel').carousel('pause');" >
  <path d="M 58.229213,746.41822 L 62.807255,750.38597 L 63.722762,749.77554 L 67.995593,747.63906 L 71.047578,748.5547 L 72.878719,747.63906 L 73.18393,748.85991 L 75.320409,748.85991 L 76.846339,748.5547 L 77.456761,748.5547 L 78.067184,749.16512 L 80.813958,750.38597 L 80.508747,751.60681 L 80.508747,752.82766 L 81.11917,753.13287 L 80.813958,754.0485 L 81.729592,754.65892 L 83.255521,754.65892 L 83.560733,756.18498 L 85.391873,755.57456 L 86.612718,755.26935 L 87.528352,754.96414 L 88.138648,754.96414 L 89.664704,754.65892 L 90.275127,754.35371 L 90.885549,755.87977 L 90.275127,756.7954 L 90.580338,757.71104 L 90.580338,758.93188 L 90.275127,759.5423 L 89.359493,761.67878 L 89.664704,763.20484 L 88.138648,763.20484 L 86.91793,763.20484 L 85.697085,762.89963 L 85.391873,762.89963 L 84.781578,762.59442 L 84.171155,762.59442 L 83.560733,762.59442 L 82.645099,762.28921 L 80.813958,761.98399 L 79.287902,761.67878 L 78.067184,761.37357 L 77.761972,761.37357 L 76.846339,761.37357 L 75.930705,764.7309 L 74.404775,763.81526 L 73.18393,763.81526 L 71.35279,763.20484 L 70.131945,763.20484 L 66.774747,761.67878 L 65.248818,761.98399 L 64.027973,762.28921 L 62.196832,761.67878 L 62.502044,761.06836 L 62.502044,757.71104 L 61.891621,756.49019 L 57.924002,755.57456 L 56.398072,755.87977 L 50.904396,754.0485 L 44.800425,750.99639 L 58.229467,746.41822" style="fill:black;fill-opacity:0;fill-opacity:0;stroke:#6e6e6e;stroke-width:0.30521128;stroke-linecap:round;stroke-linejoin:round" id="map1160" onmouseover="hover(evt, '16', 'Ottakring')" onmouseout="out(evt)"/>
</a>
<a xlink:href="#BC"  onclick="window.parent.$('#BezirkCarousel').carousel(16);window.parent.$('#BezirkCarousel').carousel('pause');" >
  <path d="M 61.891875,726.57948 L 59.145101,730.85244 L 65.249073,730.85244 L 60.365946,735.1254 L 65.859495,735.73582 L 65.859495,737.8723 L 70.437537,739.09315 L 75.931086,741.22963 L 77.457016,740.92442 L 81.729846,744.28174 L 81.424635,745.19737 L 83.866198,744.28174 L 85.697466,746.11301 L 86.612973,746.41695 L 87.528607,747.33385 L 88.749452,747.943 L 89.054663,748.24822 L 88.749452,749.77427 L 89.054663,750.38469 L 90.885804,750.68991 L 90.580592,751.30033 L 90.580592,752.21596 L 91.801438,752.52117 L 91.191015,754.35244 L 90.885804,755.8785 L 90.275381,754.35244 L 89.664959,754.65765 L 88.139029,754.96286 L 87.528607,754.96286 L 86.612973,755.26807 L 85.392255,755.57329 L 83.560987,756.18371 L 83.255776,754.65765 L 81.729846,754.65765 L 80.814213,754.04723 L 81.119424,753.1316 L 80.509001,752.82638 L 80.509001,751.60554 L 80.814213,750.38469 L 78.067438,749.16385 L 77.457016,748.55343 L 76.84672,748.55343 L 75.320664,748.85864 L 73.184312,748.85864 L 72.879101,747.63779 L 71.047833,748.55343 L 67.995847,747.63779 L 63.723143,749.77427 L 62.807509,750.38469 L 58.229467,746.41695 L 44.800425,750.99512 L 43.274495,751.91075 L 43.579707,750.99512 L 52.125496,738.17751 L 46.021524,736.34625 L 49.683932,724.13779 L 60.671412,720.78047 L 61.892257,726.57948" style="fill:black;fill-opacity:0;stroke:#6e6e6e;stroke-width:0.30521128;stroke-linecap:round;stroke-linejoin:round" id="map1170" onmouseover="hover(evt, '17', 'Hernals')" onmouseout="out(evt)"/>
</a>
<a xlink:href="#BC"  onclick="window.parent.$('#BezirkCarousel').carousel(17);window.parent.$('#BezirkCarousel').carousel('pause');" >
  <path d="M 72.879355,729.6316 L 76.236552,732.98892 L 77.762608,733.59934 L 79.89896,733.90456 L 82.950946,735.73582 L 86.613354,736.95667 L 87.528988,736.95667 L 89.360129,737.8723 L 89.360129,739.39836 L 91.801692,739.39836 L 94.548466,739.70357 L 96.990157,740.6192 L 96.684945,741.22963 L 96.074523,741.53484 L 95.769312,743.67132 L 95.4641,746.72216 L 94.853678,747.943 L 92.717326,748.85864 L 92.412115,750.38469 L 92.106903,751.60554 L 91.801692,752.52117 L 90.580974,752.21596 L 90.580974,751.30033 L 90.886058,750.68991 L 89.054917,750.38469 L 88.749706,749.77427 L 89.054917,748.24822 L 88.749706,747.943 L 87.528988,747.33385 L 86.613354,746.41695 L 85.69772,746.11301 L 83.86658,744.28174 L 81.425017,745.19737 L 81.730101,744.28174 L 77.457397,740.92442 L 75.931341,741.22963 L 70.437792,739.09315 L 65.859749,737.8723 L 65.859749,735.73582 L 60.366201,735.1254 L 65.249454,730.85244 L 59.145483,730.85244 L 61.892257,726.57948 L 67.385806,728.10554 L 72.879355,729.6316" style="fill:black;fill-opacity:0;stroke:#6e6e6e;stroke-width:0.30521128;stroke-linecap:round;stroke-linejoin:round" id="map1180" onmouseover="hover(evt, '18', 'Währing')" onmouseout="out(evt)"/>
</a>
<a xlink:href="#BC"  onclick="window.parent.$('#BezirkCarousel').carousel(18);window.parent.$('#BezirkCarousel').carousel('pause');" >
  <path d="M 102.79006,734.20977 L 102.17977,736.95667 L 99.432992,737.26188 L 99.12778,738.17751 L 98.822569,740.00878 L 98.212146,740.6192 L 97.906935,740.31399 L 96.991301,740.6192 L 94.549738,739.70357 L 91.802964,739.39836 L 89.3614,739.39836 L 89.3614,737.8723 L 87.530133,736.95667 L 86.614626,736.95667 L 82.952218,735.73582 L 79.900232,733.90456 L 77.763753,733.59934 L 76.237824,732.98892 L 72.880627,729.6316 L 67.387078,728.10554 L 61.893529,726.57948 L 60.672684,720.78174 L 63.419458,710.09935 L 76.238078,707.65766 L 93.024699,693.61794 L 97.602614,699.41695 L 107.06416,715.59315 L 104.6226,716.814 L 105.2329,719.5609 L 106.45374,722.61174 L 106.45374,722.91695 L 104.92781,730.24202 L 103.40176,732.98892 L 102.79133,734.20977" style="fill:black;fill-opacity:0;stroke:#6e6e6e;stroke-width:0.30521128;stroke-linecap:round;stroke-linejoin:round" id="map1190" onmouseover="hover(evt, '19', 'Döbling')" onmouseout="out(evt)"/>
</a>
<a xlink:href="#BC"  onclick="window.parent.$('#BezirkCarousel').carousel(19);window.parent.$('#BezirkCarousel').carousel('pause');" >
  <path d="M 116.21949,740.6192 L 116.5247,743.06089 L 114.69356,744.58695 L 114.08313,744.89216 L 112.86229,743.36611 L 110.72594,741.84005 L 107.97916,743.36611 L 107.06353,745.19737 L 106.45311,745.19737 L 105.53747,745.8078 L 104.31675,744.28174 L 103.40112,743.06089 L 102.7907,742.14526 L 102.7907,741.53484 L 102.48549,740.92442 L 102.1804,736.95667 L 102.7907,734.20977 L 103.40112,732.98892 L 104.92718,730.24202 L 106.45311,722.91822 L 106.45311,722.61301 L 105.23239,719.5609 L 104.62197,716.814 L 107.06353,715.59315 L 111.03115,722.00259 L 114.69356,727.49639 L 116.82991,730.24202 L 121.40782,736.04104 L 119.27147,737.8723 L 118.66105,738.48273 L 118.05063,739.09315 L 117.74554,739.39836 L 116.21949,740.6192" style="fill:black;fill-opacity:0;stroke:#6e6e6e;stroke-width:0.30521128;stroke-linecap:round;stroke-linejoin:round" id="map1200" onmouseover="hover(evt, '20', 'Brigittenau')" onmouseout="out(evt)"/>
</a>
<a xlink:href="#BC"  onclick="window.parent.$('#BezirkCarousel').carousel(20);window.parent.$('#BezirkCarousel').carousel('pause');" >
  <path d="M 116.82991,667.05057 L 121.40782,671.62874 L 134.53229,667.9662 L 140.63524,671.32352 L 142.46651,690.85705 L 161.38961,703.37071 L 160.16876,704.28634 L 153.1489,710.99972 L 150.70848,713.44141 L 150.09806,714.05183 L 149.48764,715.27268 L 148.572,716.49352 L 147.04595,714.96747 L 145.51989,714.96747 L 141.55214,715.27268 L 140.94172,715.27268 L 138.50003,723.51338 L 137.27919,723.20817 L 137.27919,727.48113 L 132.09059,728.39676 L 130.25933,727.17592 L 128.73327,729.61761 L 124.15562,732.36451 L 124.15562,733.89057 L 121.40884,736.02705 L 116.8308,730.22803 L 114.69445,727.48113 L 111.03204,721.98733 L 107.06442,715.57789 L 97.602996,699.40296 L 101.2654,700.01339 L 109.50598,694.51958 L 110.1164,672.23916 L 116.8308,667.05057" style="fill:black;fill-opacity:0;stroke:#6e6e6e;stroke-width:0.305;stroke-linecap:round;stroke-linejoin:round;stroke-miterlimit:4;stroke-dasharray:none" id="map1210" onmouseover="hover(evt, '21', 'Floridsdorf')" onmouseout="out(evt)"/>
</a>
<a xlink:href="#BC"  onclick="window.parent.$('#BezirkCarousel').carousel(21);window.parent.$('#BezirkCarousel').carousel('pause');" >
  <path d="M 178.48271,703.99385 L 187.94426,711.62413 L 200.45792,711.31892 L 197.1006,727.80033 L 204.42567,730.85244 L 197.71102,782.73836 L 203.81525,779.68625 L 206.56088,792.19991 L 219.07454,792.19991 L 220.6006,806.23963 L 220.29539,813.25822 L 186.11172,795.55597 L 176.95538,790.06343 L 169.3251,782.73836 L 147.65637,762.59442 L 143.38341,758.62667 L 137.5844,753.13287 L 133.31144,748.85991 L 127.51243,742.75696 L 125.37633,740.31526 L 121.40884,736.04231 L 124.15562,733.90583 L 124.15562,732.37977 L 128.73327,729.63287 L 130.25933,727.19118 L 132.09059,728.41202 L 137.27919,727.49639 L 137.27919,723.22343 L 138.50003,723.52864 L 140.94172,715.28794 L 141.55214,715.28794 L 145.51989,714.98273 L 147.04595,714.98273 L 148.572,716.50878 L 149.48764,715.28794 L 150.09806,714.06709 L 150.70848,713.45667 L 153.1489,711.01498 L 160.16876,704.3016 L 161.38961,703.38597 L 165.96778,700.02865 L 164.13651,688.43062 L 175.42933,690.5671 L 182.7544,694.22963 L 178.48144,703.99639" style="fill: black; fill-opacity: 0; stroke: rgb(110, 110, 110); stroke-width: 0.305211; stroke-linecap: round; stroke-linejoin: round;" id="map1220" onmouseover="hover(evt, '22', 'Donaustadt')" onmouseout="out(evt)"/>
</a>
<a xlink:href="#BC"  onclick="window.parent.$('#BezirkCarousel').carousel(22);window.parent.$('#BezirkCarousel').carousel('pause');" >
  <path d="M 61.28158,801.06376 L 64.333566,802.2846 L 66.775129,797.70643 L 68.911481,798.01164 L 69.216692,802.89503 L 73.489523,798.92728 L 75.931086,799.5377 L 81.424635,800.75855 L 81.729846,801.67418 L 83.866198,801.36897 L 90.580592,799.23249 L 92.716944,803.20024 L 97.600198,804.72629 L 97.905409,805.0315 L 101.87303,804.72629 L 105.2301,805.33672 L 109.19772,806.55756 L 109.50293,806.55756 L 113.16534,807.77841 L 111.63928,812.05136 L 110.72377,811.74615 L 107.67179,823.34418 L 85.391619,816.62953 L 79.287647,831.58489 L 71.657365,827.31193 L 55.786378,820.90249 L 29.233123,830.05883 L 28.6227,826.39629 L 39.304968,823.03897 L 23.739319,810.52531 L 29.843291,806.55883 L 31.36922,806.55883 L 38.999502,805.94841 L 45.408685,802.59109 L 48.765882,800.1494 L 53.343925,801.06503 L 54.869854,801.98066 L 57.311417,803.20151 L 60.058191,797.7077 L 61.279037,801.06503" style="fill:black;fill-opacity:0;stroke:#6e6e6e;stroke-width:0.30521128;stroke-linecap:round;stroke-linejoin:round" id="map1230" onmouseover="hover(evt, '23', 'Liesing')" onmouseout="out(evt)"/>
</a>
  <path d="M 116.82991,667.05057 L 121.40782,671.62874 L 134.53229,667.9662 L 140.63524,671.32352 L 142.46651,690.85705 L 161.38961,703.37071 L 165.96778,700.01339 L 164.13651,688.41536 L 175.42933,690.55184 L 182.7544,694.21437 L 178.48144,703.98113 L 187.94299,711.61141 L 200.45665,711.3062 L 197.09933,727.78761 L 204.4244,730.83845 L 197.70975,782.72437 L 203.81398,779.67226 L 206.55961,792.18592 L 219.07327,792.18592 L 220.59933,806.22564 L 220.29411,813.2455 L 186.11045,795.54325 L 166.88341,798.29015 L 154.98017,812.94029 L 145.21341,814.16114 L 146.12904,828.5048 L 133.00496,830.64128 L 119.57579,825.75789 L 107.67268,823.31748 L 85.392509,816.60283 L 79.288538,831.55818 L 71.658255,827.28522 L 55.787268,820.87579 L 29.23414,830.03212 L 28.623717,826.36959 L 39.305986,823.01226 L 23.74021,810.4986 L 29.844181,806.53085 L 17.025561,805.61522 L 7.8692217,792.79762 L 20.687842,767.46508 L 14.889082,750.98367 L 7.8696033,750.98367 L 14.27866,745.48987 L 13.057942,729.61888 L 19.161913,717.71564 L 37.474463,729.61888 L 37.779675,737.85959 L 46.02038,736.33353 L 49.682661,724.12508 L 60.67014,720.76775 L 63.417042,710.08536 L 76.235662,707.64367 L 93.022156,693.60395 L 97.600198,699.40296 L 101.26261,700.01339 L 109.50331,694.51958 L 110.11361,672.24043 L 116.828,667.05184" style="fill:none;stroke:#6e6e6e;stroke-width:1.52605653;stroke-linecap:round;stroke-linejoin:round" id="path99"/>
  <path style="fill:none;fill-rule:evenodd;stroke:#d40000;stroke-width:0.6;stroke-linecap:butt;stroke-linejoin:miter;stroke-opacity:1;stroke-miterlimit:4;stroke-dasharray:none" d="M 112.30345,786.38641 C 112.30345,784.69128 111.19446,781.19499 110.88924,779.66889 C 110.68361,778.64076 110.31833,776.40575 109.82858,775.42625 C 109.23767,774.24444 109.02076,772.74995 108.41437,771.53717 C 107.83132,770.37107 107.60311,768.85399 107.00015,767.64808 C 106.30929,766.26635 106.82338,764.4407 106.82338,762.87511 C 106.82338,761.43871 107.36574,760.93514 107.85187,759.47529 C 108.18892,758.46312 108.82187,756.71113 110.13661,756.35119 C 111.26383,756.04259 111.68072,755.54289 112.21062,755.01299 C 118.0143,749.36514 124.04021,744.17328 130.51146,739.01025 C 133.10078,736.43768 134.76219,733.91676 137.59324,731.59636 C 138.28882,730.90078 143.60076,727.51586 144.65359,726.98944 C 148.72391,721.11897 147.92392,721.81588 149.24978,716.20606 C 150.57088,711.7889 148.69368,709.64926 147.12847,705.95302 C 147.21685,703.56653 149.60334,703.47814 149.60334,702.77104" id="path3346" sodipodi:nodetypes="csssssssccccccc"/>
  <path style="fill:none;fill-rule:evenodd;stroke:#008000;stroke-width:0.6;stroke-linecap:butt;stroke-linejoin:miter;stroke-opacity:1;stroke-miterlimit:4;stroke-dasharray:none" d="M 48.377994,766.44802 C 49.088189,767.90121 50.150724,769.26392 52.175775,770.96394 C 53.060864,771.70697 52.904394,774.20065 56.147226,774.53721 C 58.840628,774.81675 63.09918,775.89484 64.286057,775.77276 C 65.096829,775.68937 69.434754,776.67697 71.229067,777.50702 C 73.02338,778.33706 76.106128,777.74012 78.436075,778.10874 C 80.906289,778.49955 82.779239,779.9003 84.684492,780.27011 C 86.589745,780.63991 88.214802,780.54127 89.251731,779.6208 C 90.865851,778.18796 90.611632,776.32833 91.915313,776.42962 C 93.575021,776.55857 96.419534,775.72213 97.856175,775.16572 C 99.292816,774.60931 99.055336,773.98523 99.752308,773.1208 C 100.56548,772.11226 99.94512,770.14939 100.41652,769.91369 C 102.77013,768.73689 105.41645,766.00972 107.34298,766.15512 C 110.39988,766.38583 111.20336,765.97414 113.04089,764.28932 C 114.81871,762.65925 116.57069,762.34369 116.24616,759.65759 C 115.92607,757.00822 110.88141,758.40526 108.08562,753.49706 C 106.66297,750.99951 105.02105,751.27694 104.97166,747.60981 C 104.95174,746.08028 103.75208,744.78779 102.53201,743.15885 C 101.31472,741.53362 100.85003,739.51238 100.7039,737.81387 C 100.78016,732.38084 101.15408,728.13722 102.93429,723.98424" id="path3348" sodipodi:nodetypes="cssssssssssssssssscc"/>
  <path style="fill:none;fill-rule:evenodd;stroke:#800080;stroke-width:0.60527759999999997;stroke-linecap:butt;stroke-linejoin:miter;stroke-miterlimit:4;stroke-dasharray:none;stroke-opacity:1" d="M 107.37652,765.87236 C 107.1678,765.51959 106.06934,765.81026 105.56426,765.55318 C 104.99979,765.26588 104.44591,765.31657 103.87693,764.97955 C 102.50187,763.89075 101.20174,762.24779 100.06497,761.09581 C 99.755659,760.67613 99.73421,760.56927 99.440047,760.07021 C 99.039453,758.16562 98.708722,756.2997 99.002625,754.32817 C 99.562377,753.13728 102.41684,754.40978 102.87746,754.17534 C 103.79469,753.70849 103.71129,752.89711 104.68946,752.73116 C 106.23106,752.20531 106.40515,752.32892 107.68895,752.32833 C 110.30476,751.4315 109.47687,751.31032 111.8134,750.52156 C 113.90671,750.09538 114.97226,749.89639 116.87501,750.82627 C 118.95603,751.84327 124.50117,751.13992 126.7491,751.37764 C 129.05126,751.6211 133.479,755.63071 135.31069,757.54127" id="path2438" sodipodi:nodetypes="csccccscccszc"/>
  <path style="fill:none;fill-rule:evenodd;stroke:#ff7f2a;stroke-width:0.59999999999999998;stroke-linecap:butt;stroke-linejoin:miter;stroke-opacity:1;stroke-miterlimit:4;stroke-dasharray:none" d="M 75.224543,757.52761 C 74.906388,759.03692 73.43287,762.25491 73.633553,764.15674 C 73.732071,765.09038 75.433262,767.3992 77.566834,768.79713 C 78.425845,769.35996 83.197002,769.39588 83.842407,768.9739 C 87.168881,766.79899 88.630082,770.42606 91.046058,769.90198 C 93.54398,769.36013 98.641386,766.84292 99.089391,765.52676 C 99.878213,763.20935 101.68526,758.29588 105.09981,758.67666 C 106.37336,758.81868 106.85072,759.56215 107.75145,759.73732 C 111.45768,760.4581 113.37231,760.23165 115.66222,762.16799 C 120.36968,765.50318 123.8353,767.44772 128.87628,771.3162 C 131.34771,772.72697 132.84952,774.12788 132.23503,776.61949 C 131.68204,778.86175 127.36166,780.90191 130.55565,784.928 C 132.04232,786.80198 133.37421,789.05853 135.15314,791.19101" id="path3212" sodipodi:nodetypes="csssssssccsss"/>
  <path style="fill:none;fill-rule:evenodd;stroke:#c87137;stroke-width:0.6;stroke-linecap:butt;stroke-linejoin:miter;stroke-opacity:1;stroke-miterlimit:4;stroke-dasharray:none" d="M 76.437501,821.5625 C 76.919793,820.12946 78.316966,816.11607 79.250001,814.25 C 80.32533,812.09934 80.125001,808.69875 80.125001,806.0625 C 80.125001,804.27912 82.4469,802.8905 82.812501,801.0625 C 83.19827,799.13365 84.750001,797.18047 84.750001,795.375 C 84.750001,793.5738 85.325257,792.22449 85.687501,790.5625 C 86.080536,788.75924 86.402894,786.88501 86.125001,785.1875 C 85.667105,782.39045 85.89509,781.26143 87.875001,780.8125 C 90.236919,780.27695 90.632325,779.03005 91.187501,776.8125 C 91.494258,775.58721 90.666493,775.53261 90.437501,773.875 C 90.296399,772.85361 90.875001,771.7961 91.062501,770.8125 C 91.545387,768.27934 89.557052,765.31297 89.437501,763.0625 C 89.312501,760.70945 90.966039,759.2207 90.437501,757.0625 C 90.260065,756.33797 92.786357,750.16002 92.750001,749.375 C 92.711084,748.53468 94.588977,748.29562 95.048938,747.7684 C 95.593011,747.14476 96.062501,742.40652 96.062501,741.8125 C 96.062501,741.32388 99.140266,738.05217 100.07429,737.86202 C 103.43282,737.17824 108.32822,737.99214 108.6875,737.8125 C 109.91172,737.20039 111.65809,734.95962 112.54733,733.62944 C 113.55566,732.12111 111.72197,729.80875 114.75,727.375 C 117.07234,725.50844 116.74761,723.43935 117.125,721.875 C 117.5611,720.06731 118.27589,718.19822 118.8125,716.48039" id="path3216" sodipodi:nodetypes="cssssssssssssssssssssc"/>
  <text xml:space="preserve" style="font-size:10px;font-style:normal;font-weight:normal;fill:#000000;fill-opacity:1;stroke:none;stroke-width:1px;stroke-linecap:butt;stroke-linejoin:miter;stroke-opacity:1;font-family:Bitstream Vera Sans" x="175.3942" y="671.72754" id="textBez"/>
  <text xml:space="preserve" style="font-size:10px;font-style:normal;font-weight:normal;fill:#000000;fill-opacity:1;stroke:none;stroke-width:1px;stroke-linecap:butt;stroke-linejoin:miter;stroke-opacity:1;font-family:Bitstream Vera Sans" x="175.07047" y="684.2348" id="textBezName"/>
</svg>
